<svg xmlns="http://www.w3.org/2000/svg" xmlns:xlink="http://www.w3.org/1999/xlink" width="500" zoomAndPan="magnify" viewBox="0 0 375 374.999991" height="500" preserveAspectRatio="xMidYMid meet" version="1.0"><defs><g/></defs><rect x="-37.5" width="450" fill="#ffffff" y="-37.499999" height="449.999989" fill-opacity="1"/><rect x="-37.5" width="450" fill="#ffffff" y="-37.499999" height="449.999989" fill-opacity="1"/><rect x="-37.5" width="450" fill="#ffffff" y="-37.499999" height="449.999989" fill-opacity="1"/><path fill="#ff7d00" d="M 224.242188 191.132812 L 145.894531 191.132812 L 145.894531 181.570312 L 214.675781 181.570312 L 214.675781 96.550781 L 155.460938 96.550781 L 155.460938 124.605469 L 145.894531 124.605469 L 145.894531 86.984375 L 224.242188 86.984375 Z M 224.242188 191.132812 " fill-opacity="1" fill-rule="nonzero"/><path fill="#ff7d00" d="M 155.460938 193.578125 L 145.894531 193.578125 L 145.894531 206.332031 L 150.675781 201.761719 L 155.460938 206.332031 Z M 155.460938 193.578125 " fill-opacity="1" fill-rule="nonzero"/><g fill="#78290f" fill-opacity="1"><g transform="translate(142.108574, 171.995754)"><g><path d="M 27.203125 0 L 13.375 -20.3125 L 25.828125 -38.703125 L 36.34375 -38.703125 L 22.46875 -20.59375 L 22.46875 -20.265625 L 37.9375 0 Z M 13.265625 -38.703125 L 13.265625 0 L 4.5625 0 L 4.734375 -19.71875 L 4.5625 -38.703125 Z M 13.265625 -38.703125 "/></g></g></g><g fill="#78290f" fill-opacity="1"><g transform="translate(116.312105, 258.63659)"><g><path d="M 24.109375 0 L 11.859375 -18.015625 L 22.890625 -34.3125 L 32.21875 -34.3125 L 19.921875 -18.25 L 19.921875 -17.96875 L 33.625 0 Z M 11.765625 -34.3125 L 11.765625 0 L 4.046875 0 L 4.203125 -17.46875 L 4.046875 -34.3125 Z M 11.765625 -34.3125 "/></g></g></g><g fill="#78290f" fill-opacity="1"><g transform="translate(157.165491, 258.63659)"><g><path d="M 4.046875 0 L 4.046875 -34.3125 L 11.71875 -34.3125 L 11.46875 -6.59375 L 24.109375 -6.6875 L 24.109375 0 Z M 4.046875 0 "/></g></g></g><g fill="#78290f" fill-opacity="1"><g transform="translate(189.18453, 258.63659)"><g><path d="M 4.046875 0 L 4.046875 -34.3125 L 24.65625 -34.3125 L 24.65625 -27.78125 L 11.671875 -27.921875 L 11.46875 -20.59375 L 23.4375 -20.59375 L 23.4375 -14.15625 L 11.46875 -14.15625 L 11.671875 -6.4375 L 24.65625 -6.546875 L 24.65625 0 Z M 4.046875 0 "/></g></g></g><g fill="#78290f" fill-opacity="1"><g transform="translate(224.522556, 258.63659)"><g><path d="M 22.765625 -0.140625 C 21.128906 0.378906 19.234375 0.640625 17.078125 0.640625 C 14.929688 0.640625 13.035156 0.378906 11.390625 -0.140625 C 9.753906 -0.660156 8.234375 -1.554688 6.828125 -2.828125 C 3.898438 -5.429688 2.4375 -10.234375 2.4375 -17.234375 C 2.4375 -25.109375 4.457031 -30.3125 8.5 -32.84375 C 10.675781 -34.25 13.535156 -34.953125 17.078125 -34.953125 C 22.648438 -34.953125 26.585938 -33.191406 28.890625 -29.671875 C 30.785156 -26.804688 31.734375 -22.660156 31.734375 -17.234375 C 31.734375 -10.234375 30.265625 -5.429688 27.328125 -2.828125 C 25.929688 -1.554688 24.410156 -0.660156 22.765625 -0.140625 Z M 13.203125 -27.4375 C 12.304688 -26.914062 11.613281 -25.847656 11.125 -24.234375 C 10.632812 -22.617188 10.390625 -20.257812 10.390625 -17.15625 C 10.390625 -14.050781 10.640625 -11.679688 11.140625 -10.046875 C 11.648438 -8.421875 12.351562 -7.351562 13.25 -6.84375 C 14.144531 -6.34375 15.421875 -6.09375 17.078125 -6.09375 C 18.742188 -6.09375 20.015625 -6.351562 20.890625 -6.875 C 22.804688 -7.988281 23.765625 -11.410156 23.765625 -17.140625 C 23.765625 -22.929688 22.835938 -26.363281 20.984375 -27.4375 C 20.078125 -27.957031 18.773438 -28.21875 17.078125 -28.21875 C 15.390625 -28.21875 14.097656 -27.957031 13.203125 -27.4375 Z M 13.203125 -27.4375 "/></g></g></g></svg>